<mxfile host="app.diagrams.net" modified="2023-09-30T01:26:28.663Z" agent="Mozilla/5.0 (Windows NT 10.0; Win64; x64) AppleWebKit/537.36 (KHTML, like Gecko) Chrome/116.0.0.0 Safari/537.36" etag="6P5jegjrFJJlngHM8_VI" version="22.0.0" type="device">
  <diagram id="C5RBs43oDa-KdzZeNtuy" name="Page-1">
    <mxGraphModel dx="1671" dy="867" grid="1" gridSize="10" guides="1" tooltips="1" connect="1" arrows="1" fold="1" page="1" pageScale="1" pageWidth="827" pageHeight="1169" math="0" shadow="0">
      <root>
        <mxCell id="WIyWlLk6GJQsqaUBKTNV-0" />
        <mxCell id="WIyWlLk6GJQsqaUBKTNV-1" parent="WIyWlLk6GJQsqaUBKTNV-0" />
        <mxCell id="WIyWlLk6GJQsqaUBKTNV-2" value="" style="rounded=0;html=1;jettySize=auto;orthogonalLoop=1;fontSize=11;endArrow=block;endFill=0;endSize=8;strokeWidth=1;shadow=0;labelBackgroundColor=none;edgeStyle=orthogonalEdgeStyle;" parent="WIyWlLk6GJQsqaUBKTNV-1" source="WIyWlLk6GJQsqaUBKTNV-3" edge="1">
          <mxGeometry relative="1" as="geometry">
            <mxPoint x="220" y="170" as="targetPoint" />
          </mxGeometry>
        </mxCell>
        <mxCell id="WIyWlLk6GJQsqaUBKTNV-3" value="시작" style="rounded=1;whiteSpace=wrap;html=1;fontSize=12;glass=0;strokeWidth=1;shadow=0;" parent="WIyWlLk6GJQsqaUBKTNV-1" vertex="1">
          <mxGeometry x="160" y="80" width="120" height="40" as="geometry" />
        </mxCell>
        <mxCell id="WIyWlLk6GJQsqaUBKTNV-4" value="" style="rounded=0;html=1;jettySize=auto;orthogonalLoop=1;fontSize=11;endArrow=block;endFill=0;endSize=8;strokeWidth=1;shadow=0;labelBackgroundColor=none;edgeStyle=orthogonalEdgeStyle;exitX=0.5;exitY=1;exitDx=0;exitDy=0;" parent="WIyWlLk6GJQsqaUBKTNV-1" source="cB1k44KY7UJgh1NcU4_G-0" target="WIyWlLk6GJQsqaUBKTNV-10" edge="1">
          <mxGeometry y="20" relative="1" as="geometry">
            <mxPoint as="offset" />
            <mxPoint x="220" y="250" as="sourcePoint" />
          </mxGeometry>
        </mxCell>
        <mxCell id="WIyWlLk6GJQsqaUBKTNV-8" value="No" style="rounded=0;html=1;jettySize=auto;orthogonalLoop=1;fontSize=11;endArrow=block;endFill=0;endSize=8;strokeWidth=1;shadow=0;labelBackgroundColor=none;edgeStyle=orthogonalEdgeStyle;" parent="WIyWlLk6GJQsqaUBKTNV-1" source="WIyWlLk6GJQsqaUBKTNV-10" target="WIyWlLk6GJQsqaUBKTNV-11" edge="1">
          <mxGeometry x="0.3333" y="20" relative="1" as="geometry">
            <mxPoint as="offset" />
          </mxGeometry>
        </mxCell>
        <mxCell id="WIyWlLk6GJQsqaUBKTNV-9" value="Yes" style="edgeStyle=orthogonalEdgeStyle;rounded=0;html=1;jettySize=auto;orthogonalLoop=1;fontSize=11;endArrow=block;endFill=0;endSize=8;strokeWidth=1;shadow=0;labelBackgroundColor=none;" parent="WIyWlLk6GJQsqaUBKTNV-1" edge="1">
          <mxGeometry y="10" relative="1" as="geometry">
            <mxPoint as="offset" />
            <mxPoint x="325" y="319.75" as="sourcePoint" />
            <mxPoint x="420" y="320" as="targetPoint" />
          </mxGeometry>
        </mxCell>
        <mxCell id="WIyWlLk6GJQsqaUBKTNV-10" value="손 끝 위치가 검출되는가?" style="rhombus;whiteSpace=wrap;html=1;shadow=0;fontFamily=Helvetica;fontSize=12;align=center;strokeWidth=1;spacing=6;spacingTop=-4;" parent="WIyWlLk6GJQsqaUBKTNV-1" vertex="1">
          <mxGeometry x="115" y="290" width="210" height="60" as="geometry" />
        </mxCell>
        <mxCell id="WIyWlLk6GJQsqaUBKTNV-11" value="끝" style="rounded=1;whiteSpace=wrap;html=1;fontSize=12;glass=0;strokeWidth=1;shadow=0;" parent="WIyWlLk6GJQsqaUBKTNV-1" vertex="1">
          <mxGeometry x="160" y="810" width="120" height="40" as="geometry" />
        </mxCell>
        <mxCell id="cB1k44KY7UJgh1NcU4_G-0" value="READ&lt;br&gt;입력된 사진/동영상" style="shape=parallelogram;perimeter=parallelogramPerimeter;whiteSpace=wrap;html=1;fixedSize=1;" vertex="1" parent="WIyWlLk6GJQsqaUBKTNV-1">
          <mxGeometry x="125" y="170" width="190" height="60" as="geometry" />
        </mxCell>
        <mxCell id="cB1k44KY7UJgh1NcU4_G-1" value="손 끝 이미지 검출 시" style="swimlane;whiteSpace=wrap;html=1;" vertex="1" parent="WIyWlLk6GJQsqaUBKTNV-1">
          <mxGeometry x="420" y="265" width="350" height="620" as="geometry" />
        </mxCell>
        <mxCell id="cB1k44KY7UJgh1NcU4_G-2" value="손 끝 위치 기준 ± 20px 이미지 자르기" style="rounded=0;whiteSpace=wrap;html=1;" vertex="1" parent="cB1k44KY7UJgh1NcU4_G-1">
          <mxGeometry x="20" y="40" width="310" height="50" as="geometry" />
        </mxCell>
        <mxCell id="cB1k44KY7UJgh1NcU4_G-3" value="WRITE&lt;br&gt;자른 이미지" style="shape=parallelogram;perimeter=parallelogramPerimeter;whiteSpace=wrap;html=1;fixedSize=1;" vertex="1" parent="cB1k44KY7UJgh1NcU4_G-1">
          <mxGeometry x="20" y="110" width="310" height="60" as="geometry" />
        </mxCell>
        <mxCell id="cB1k44KY7UJgh1NcU4_G-5" value="지문/손톱/기타 &lt;br&gt;분류모델 적용" style="rounded=0;whiteSpace=wrap;html=1;" vertex="1" parent="cB1k44KY7UJgh1NcU4_G-1">
          <mxGeometry x="20" y="190" width="310" height="50" as="geometry" />
        </mxCell>
        <mxCell id="cB1k44KY7UJgh1NcU4_G-11" value="" style="edgeStyle=orthogonalEdgeStyle;rounded=0;html=1;jettySize=auto;orthogonalLoop=1;fontSize=11;endArrow=block;endFill=0;endSize=8;strokeWidth=1;shadow=0;labelBackgroundColor=none;exitX=0.5;exitY=1;exitDx=0;exitDy=0;" edge="1" parent="cB1k44KY7UJgh1NcU4_G-1" source="cB1k44KY7UJgh1NcU4_G-2" target="cB1k44KY7UJgh1NcU4_G-3">
          <mxGeometry y="10" relative="1" as="geometry">
            <mxPoint as="offset" />
            <mxPoint x="-95" y="120" as="sourcePoint" />
            <mxPoint y="120.25" as="targetPoint" />
            <Array as="points">
              <mxPoint x="175" y="90" />
            </Array>
          </mxGeometry>
        </mxCell>
        <mxCell id="cB1k44KY7UJgh1NcU4_G-12" value="" style="edgeStyle=orthogonalEdgeStyle;rounded=0;html=1;jettySize=auto;orthogonalLoop=1;fontSize=11;endArrow=block;endFill=0;endSize=8;strokeWidth=1;shadow=0;labelBackgroundColor=none;exitX=0.5;exitY=1;exitDx=0;exitDy=0;" edge="1" parent="cB1k44KY7UJgh1NcU4_G-1">
          <mxGeometry y="10" relative="1" as="geometry">
            <mxPoint as="offset" />
            <mxPoint x="174.89999999999998" y="170" as="sourcePoint" />
            <mxPoint x="174.89999999999998" y="190" as="targetPoint" />
            <Array as="points">
              <mxPoint x="174.89999999999998" y="170" />
            </Array>
          </mxGeometry>
        </mxCell>
        <mxCell id="cB1k44KY7UJgh1NcU4_G-13" value="" style="edgeStyle=orthogonalEdgeStyle;rounded=0;html=1;jettySize=auto;orthogonalLoop=1;fontSize=11;endArrow=block;endFill=0;endSize=8;strokeWidth=1;shadow=0;labelBackgroundColor=none;exitX=0.5;exitY=1;exitDx=0;exitDy=0;" edge="1" parent="cB1k44KY7UJgh1NcU4_G-1">
          <mxGeometry y="10" relative="1" as="geometry">
            <mxPoint as="offset" />
            <mxPoint x="174.89999999999998" y="240" as="sourcePoint" />
            <mxPoint x="174.89999999999998" y="260" as="targetPoint" />
            <Array as="points">
              <mxPoint x="174.89999999999998" y="240" />
            </Array>
          </mxGeometry>
        </mxCell>
        <mxCell id="cB1k44KY7UJgh1NcU4_G-30" value="" style="edgeStyle=orthogonalEdgeStyle;rounded=0;orthogonalLoop=1;jettySize=auto;html=1;endArrow=block;endFill=0;" edge="1" parent="cB1k44KY7UJgh1NcU4_G-1" source="cB1k44KY7UJgh1NcU4_G-17" target="cB1k44KY7UJgh1NcU4_G-29">
          <mxGeometry relative="1" as="geometry" />
        </mxCell>
        <mxCell id="cB1k44KY7UJgh1NcU4_G-17" value="지문 판단 시" style="swimlane;whiteSpace=wrap;html=1;" vertex="1" parent="cB1k44KY7UJgh1NcU4_G-1">
          <mxGeometry x="20" y="260" width="310" height="180" as="geometry" />
        </mxCell>
        <mxCell id="cB1k44KY7UJgh1NcU4_G-28" value="" style="edgeStyle=orthogonalEdgeStyle;rounded=0;orthogonalLoop=1;jettySize=auto;html=1;endArrow=block;endFill=0;" edge="1" parent="cB1k44KY7UJgh1NcU4_G-17" source="cB1k44KY7UJgh1NcU4_G-26" target="cB1k44KY7UJgh1NcU4_G-27">
          <mxGeometry relative="1" as="geometry" />
        </mxCell>
        <mxCell id="cB1k44KY7UJgh1NcU4_G-26" value="READ&lt;br&gt;지문 판단 이미지 검출" style="shape=parallelogram;perimeter=parallelogramPerimeter;whiteSpace=wrap;html=1;fixedSize=1;" vertex="1" parent="cB1k44KY7UJgh1NcU4_G-17">
          <mxGeometry x="30" y="35" width="250" height="50" as="geometry" />
        </mxCell>
        <mxCell id="cB1k44KY7UJgh1NcU4_G-27" value="WRITE&lt;br&gt;지문 판단 이미지 블러 처리" style="shape=parallelogram;perimeter=parallelogramPerimeter;whiteSpace=wrap;html=1;fixedSize=1;" vertex="1" parent="cB1k44KY7UJgh1NcU4_G-17">
          <mxGeometry x="30" y="115" width="250" height="50" as="geometry" />
        </mxCell>
        <mxCell id="cB1k44KY7UJgh1NcU4_G-32" value="" style="edgeStyle=orthogonalEdgeStyle;rounded=0;orthogonalLoop=1;jettySize=auto;html=1;endArrow=block;endFill=0;" edge="1" parent="cB1k44KY7UJgh1NcU4_G-1">
          <mxGeometry relative="1" as="geometry">
            <mxPoint x="174.92" y="520" as="sourcePoint" />
            <mxPoint x="174.92" y="540" as="targetPoint" />
          </mxGeometry>
        </mxCell>
        <mxCell id="cB1k44KY7UJgh1NcU4_G-29" value="READ&lt;br&gt;후처리 사진" style="shape=parallelogram;perimeter=parallelogramPerimeter;whiteSpace=wrap;html=1;fixedSize=1;" vertex="1" parent="cB1k44KY7UJgh1NcU4_G-1">
          <mxGeometry x="20" y="470" width="310" height="50" as="geometry" />
        </mxCell>
        <mxCell id="cB1k44KY7UJgh1NcU4_G-31" value="S3 저장" style="rounded=0;whiteSpace=wrap;html=1;" vertex="1" parent="cB1k44KY7UJgh1NcU4_G-1">
          <mxGeometry x="20" y="540" width="310" height="50" as="geometry" />
        </mxCell>
        <mxCell id="cB1k44KY7UJgh1NcU4_G-35" style="edgeStyle=orthogonalEdgeStyle;rounded=0;orthogonalLoop=1;jettySize=auto;html=1;exitX=0;exitY=0.5;exitDx=0;exitDy=0;entryX=1.03;entryY=0.503;entryDx=0;entryDy=0;entryPerimeter=0;endArrow=blockThin;endFill=0;" edge="1" parent="WIyWlLk6GJQsqaUBKTNV-1" source="cB1k44KY7UJgh1NcU4_G-31" target="WIyWlLk6GJQsqaUBKTNV-11">
          <mxGeometry relative="1" as="geometry" />
        </mxCell>
      </root>
    </mxGraphModel>
  </diagram>
</mxfile>
